<svg width="32" height="24" viewBox="0 0 32 24" fill="none" xmlns="http://www.w3.org/2000/svg">
<path d="M7.48438 9.34863H2.98438V4.84863" stroke="white" stroke-width="2" stroke-linecap="round" stroke-linejoin="round"/>
<path d="M17.8336 6.16637C17.0675 5.40029 16.1581 4.7926 15.1571 4.37799C14.1562 3.96339 13.0834 3.75 12 3.75C10.9166 3.75 9.84378 3.96339 8.84285 4.37799C7.84191 4.7926 6.93244 5.40029 6.16635 6.16637L2.98438 9.34835" stroke="white" stroke-width="2" stroke-linecap="round" stroke-linejoin="round"/>
<path d="M16.5156 14.6514H21.0156V19.1514" stroke="white" stroke-width="2" stroke-linecap="round" stroke-linejoin="round"/>
<path d="M6.16638 17.8333C6.93247 18.5994 7.84194 19.2071 8.84287 19.6217C9.84381 20.0363 10.9166 20.2497 12 20.2497C13.0834 20.2497 14.1562 20.0363 15.1572 19.6217C16.1581 19.2071 17.0676 18.5994 17.8336 17.8333L21.0156 14.6514" stroke="white" stroke-width="2" stroke-linecap="round" stroke-linejoin="round"/>
</svg>
