<svg width="81" height="80" viewBox="0 0 81 80" fill="none" xmlns="http://www.w3.org/2000/svg">
<path d="M0.625 40C0.625 17.9086 18.5336 0 40.625 0V0C62.7164 0 80.625 17.9086 80.625 40V40C80.625 62.0914 62.7164 80 40.625 80V80C18.5336 80 0.625 62.0914 0.625 40V40Z" fill="url(#paint0_linear_1034_3535)"/>
<path d="M20.6875 20.0625H60.5625V59.9375H20.6875V20.0625Z" stroke="white" stroke-width="0.125"/>
<path d="M54.375 27.5H26.875C26.1846 27.5 25.625 28.0596 25.625 28.75V51.25C25.625 51.9404 26.1846 52.5 26.875 52.5H54.375C55.0654 52.5 55.625 51.9404 55.625 51.25V28.75C55.625 28.0596 55.0654 27.5 54.375 27.5Z" stroke="white" stroke-width="2" stroke-linecap="round" stroke-linejoin="round"/>
<path d="M25.625 51.25L33.4911 40.3295C33.6071 40.225 33.7449 40.1422 33.8966 40.0856C34.0483 40.0291 34.2108 40 34.3749 40C34.5391 40 34.7016 40.0291 34.8533 40.0856C35.005 40.1422 35.1428 40.225 35.2588 40.3295L42.2411 46.6135C42.3571 46.718 42.4949 46.8008 42.6466 46.8574C42.7983 46.9139 42.9608 46.943 43.1249 46.943C43.2891 46.943 43.4516 46.9139 43.6033 46.8574C43.755 46.8008 43.8928 46.718 44.0088 46.6135L47.2411 43.7045C47.3571 43.6 47.4949 43.5172 47.6466 43.4606C47.7983 43.4041 47.9608 43.375 48.1249 43.375C48.2891 43.375 48.4516 43.4041 48.6033 43.4606C48.755 43.5172 48.8928 43.6 49.0088 43.7045L55.625 51.25" fill="white" stroke="white" stroke-width="2" stroke-linecap="round" stroke-linejoin="round"/>
<path d="M46.8125 35.625C46.8125 36.626 46.001 37.4375 45 37.4375C43.999 37.4375 43.1875 36.626 43.1875 35.625C43.1875 34.624 43.999 33.8125 45 33.8125C46.001 33.8125 46.8125 34.624 46.8125 35.625Z" fill="white" stroke="white" stroke-width="0.125"/>
<defs>
<linearGradient id="paint0_linear_1034_3535" x1="-4.49045" y1="95.7265" x2="124.955" y2="38.8124" gradientUnits="userSpaceOnUse">
<stop stop-color="#FE6F2D"/>
<stop offset="0.650355" stop-color="#FDCE38"/>
</linearGradient>
</defs>
</svg>
