<svg width="81" height="80" viewBox="0 0 81 80" fill="none" xmlns="http://www.w3.org/2000/svg">
<path d="M0.125 40C0.125 17.9086 18.0336 0 40.125 0V0C62.2164 0 80.125 17.9086 80.125 40V40C80.125 62.0914 62.2164 80 40.125 80V80C18.0336 80 0.125 62.0914 0.125 40V40Z" fill="url(#paint0_linear_1034_3526)"/>
<path d="M26.375 50V30C26.375 30.663 26.6384 31.2989 27.1072 31.7678C27.5761 32.2366 28.212 32.5 28.875 32.5H53.875C54.2065 32.5 54.5245 32.6317 54.7589 32.8661C54.9933 33.1005 55.125 33.4185 55.125 33.75V51.25C55.125 51.5815 54.9933 51.8995 54.7589 52.1339C54.5245 52.3683 54.2065 52.5 53.875 52.5H28.875C28.212 52.5 27.5761 52.2366 27.1072 51.7678C26.6384 51.2989 26.375 50.663 26.375 50Z" fill="white"/>
<path d="M26.375 30V50C26.375 50.663 26.6384 51.2989 27.1072 51.7678C27.5761 52.2366 28.212 52.5 28.875 52.5H53.875C54.2065 52.5 54.5245 52.3683 54.7589 52.1339C54.9933 51.8995 55.125 51.5815 55.125 51.25V33.75C55.125 33.4185 54.9933 33.1005 54.7589 32.8661C54.5245 32.6317 54.2065 32.5 53.875 32.5H28.875C28.212 32.5 27.5761 32.2366 27.1072 31.7678C26.6384 31.2989 26.375 30.663 26.375 30ZM26.375 30C26.375 29.337 26.6384 28.7011 27.1072 28.2322C27.5761 27.7634 28.212 27.5 28.875 27.5H48.875" stroke="white" stroke-width="2" stroke-linecap="round" stroke-linejoin="round"/>
<path d="M48.25 44.375C49.2855 44.375 50.125 43.5355 50.125 42.5C50.125 41.4645 49.2855 40.625 48.25 40.625C47.2145 40.625 46.375 41.4645 46.375 42.5C46.375 43.5355 47.2145 44.375 48.25 44.375Z" fill="url(#paint1_linear_1034_3526)"/>
<defs>
<linearGradient id="paint0_linear_1034_3526" x1="40.196" y1="-16.7521" x2="-10.5873" y2="80.1096" gradientUnits="userSpaceOnUse">
<stop stop-color="#23D3A4"/>
<stop offset="1" stop-color="#5B49CF"/>
</linearGradient>
<linearGradient id="paint1_linear_1034_3526" x1="48.2533" y1="39.8397" x2="45.8729" y2="44.3801" gradientUnits="userSpaceOnUse">
<stop stop-color="#23D3A4"/>
<stop offset="1" stop-color="#5B49CF"/>
</linearGradient>
</defs>
</svg>
